<svg width="167" height="63" viewBox="0 0 167 63" fill="none" xmlns="http://www.w3.org/2000/svg">
<g clip-path="url(#clip0_68_781)">
<rect width="167" height="63" fill="#3D3D3D"/>
<rect x="18" y="26" width="131" height="18" fill="#5D6A7B"/>
<path d="M34.9121 23.134V27.9691H42.742V30.7113H34.9121V38H31.9173V20.3557H43.6802L43.6441 23.134H34.9121ZM51.3956 20.3557H54.3904V38H51.3956V20.3557ZM63.4569 38V20.3557H66.4518V35.1856H74.4982V38H63.4569ZM88.6193 23.0619V38H85.6244V23.0619H80.2842V20.3557H93.9595V23.0619H88.6193ZM113.835 20.3557V23.134H104.417V27.8247H112.861V30.4588H104.417V35.1856H114.123V38H101.422V20.3557H113.835ZM132.415 31.5773L137.033 38H133.245L129.023 32.0464H125.126V38H122.131V20.3557H128.698C131.368 20.3557 133.281 20.8127 134.435 21.7268C135.614 22.6168 136.203 24.0722 136.203 26.0928C136.203 29.0034 134.94 30.8316 132.415 31.5773ZM128.806 29.3763C130.466 29.3763 131.609 29.1237 132.234 28.6186C132.86 28.1134 133.172 27.2594 133.172 26.0567C133.172 24.9021 132.86 24.1203 132.234 23.7113C131.609 23.2784 130.49 23.0619 128.879 23.0619H125.126V29.3763H128.806Z" fill="#E9E4E4"/>
</g>
<defs>
<clipPath id="clip0_68_781">
<rect width="167" height="63" fill="white"/>
</clipPath>
</defs>
</svg>
