<svg width="167" height="63" viewBox="0 0 167 63" fill="none" xmlns="http://www.w3.org/2000/svg">
<g clip-path="url(#clip0_68_773)">
<rect width="167" height="63" fill="white"/>
<rect x="18" y="27" width="131" height="18" fill="#99BEEE"/>
<path d="M34.9121 24.134V28.9691H42.742V31.7113H34.9121V39H31.9173V21.3557H43.6802L43.6441 24.134H34.9121ZM51.3956 21.3557H54.3904V39H51.3956V21.3557ZM63.4569 39V21.3557H66.4518V36.1856H74.4982V39H63.4569ZM88.6193 24.0619V39H85.6244V24.0619H80.2842V21.3557H93.9595V24.0619H88.6193ZM113.835 21.3557V24.134H104.417V28.8247H112.861V31.4588H104.417V36.1856H114.123V39H101.422V21.3557H113.835ZM132.415 32.5773L137.033 39H133.245L129.023 33.0464H125.126V39H122.131V21.3557H128.698C131.368 21.3557 133.281 21.8127 134.435 22.7268C135.614 23.6168 136.203 25.0722 136.203 27.0928C136.203 30.0034 134.94 31.8316 132.415 32.5773ZM128.806 30.3763C130.466 30.3763 131.609 30.1237 132.234 29.6186C132.86 29.1134 133.172 28.2594 133.172 27.0567C133.172 25.9021 132.86 25.1203 132.234 24.7113C131.609 24.2784 130.49 24.0619 128.879 24.0619H125.126V30.3763H128.806Z" fill="black"/>
</g>
<defs>
<clipPath id="clip0_68_773">
<rect width="167" height="63" fill="white"/>
</clipPath>
</defs>
</svg>
