<svg width="297" height="87" viewBox="0 0 297 87" fill="none" xmlns="http://www.w3.org/2000/svg">
<g clip-path="url(#clip0_59_773)">
<rect width="297" height="87" fill="#3D3D3D"/>
<path d="M22.3936 63H16.8667C16.7231 63 16.6514 62.9202 16.6514 62.7607V34.8154H10.2871C10.1276 34.8154 10.0479 34.7357 10.0479 34.5762L10.0957 29.0972C10.0957 28.9696 10.1595 28.9058 10.2871 28.9058H28.9014C29.0768 28.9058 29.1646 28.9696 29.1646 29.0972V34.5762C29.1646 34.7357 29.1007 34.8154 28.9731 34.8154H22.5371L22.585 62.7607C22.585 62.9202 22.5212 63 22.3936 63ZM37.3472 63H31.7964C31.6369 63 31.5571 62.9202 31.5571 62.7607L31.605 29.0972C31.605 28.9696 31.6688 28.9058 31.7964 28.9058H37.2993C37.4269 28.9058 37.4907 28.9696 37.4907 29.0972L37.5386 62.7607C37.5386 62.9202 37.4748 63 37.3472 63ZM47.5874 63H42.0366C41.909 63 41.8452 62.9202 41.8452 62.7607L41.9409 29.0972C41.9409 28.9696 42.0047 28.9058 42.1323 28.9058H48.1138C48.2414 28.9058 48.353 28.9696 48.4487 29.0972L52.9229 35.5571L57.373 29.0972C57.4688 28.9696 57.5884 28.9058 57.7319 28.9058H63.7373C63.8809 28.9058 63.9526 28.9696 63.9526 29.0972L64.0483 62.7607C64.0483 62.9202 63.9845 63 63.8569 63H58.3062C58.1785 63 58.1147 62.9202 58.1147 62.7607L58.0669 37.7583L52.9229 45.2231L47.8267 37.7583L47.7788 62.7607C47.7788 62.9202 47.715 63 47.5874 63ZM84.1938 63H68.355C68.2274 63 68.1636 62.9202 68.1636 62.7607L68.2114 29.0972C68.2114 28.9696 68.2752 28.9058 68.4028 28.9058H84.146C84.2736 28.9058 84.3374 28.9855 84.3374 29.145V34.624C84.3374 34.7516 84.2736 34.8154 84.146 34.8154H74.0972V42.4717H84.146C84.2736 42.4717 84.3374 42.5355 84.3374 42.6631L84.3853 48.2139C84.3853 48.3415 84.3215 48.4053 84.1938 48.4053H74.0972V56.9707H84.1938C84.3215 56.9707 84.3853 57.0505 84.3853 57.21V62.8086C84.3853 62.9362 84.3215 63 84.1938 63Z" fill="#E9E4E4"/>
<path d="M98.7268 63.45C95.7268 63.45 93.5268 62.675 92.1268 61.125C90.7768 59.525 90.1018 57.425 90.1018 54.825C90.1018 53.875 90.1768 52.875 90.3268 51.825C90.4768 50.725 90.7268 49.6 91.0768 48.45C91.6268 46.5 92.4268 44.3 93.4768 41.85C94.5268 39.4 95.7518 36.925 97.1518 34.425C98.5518 31.925 100.052 29.575 101.652 27.375C103.252 25.175 104.877 23.375 106.527 21.975C108.027 20.675 109.652 19.7 111.402 19.05C113.202 18.35 114.902 18 116.502 18C119.402 18 121.452 18.65 122.652 19.95C123.902 21.25 124.527 22.85 124.527 24.75C124.527 26.25 124.202 27.8 123.552 29.4C122.902 31 122.002 32.55 120.852 34.05C119.752 35.5 118.477 36.75 117.027 37.8C115.577 38.85 114.027 39.525 112.377 39.825C112.177 39.875 111.927 39.9 111.627 39.9C111.277 39.9 111.102 39.8 111.102 39.6C111.102 39.45 111.202 39.275 111.402 39.075C111.602 38.825 111.802 38.6 112.002 38.4C112.402 38 113.027 37.275 113.877 36.225C114.777 35.125 115.702 33.875 116.652 32.475C117.602 31.025 118.377 29.625 118.977 28.275C119.877 26.375 120.327 24.75 120.327 23.4C120.327 22 119.852 21.3 118.902 21.3C118.202 21.3 117.252 21.775 116.052 22.725C114.902 23.625 113.527 25.175 111.927 27.375C110.727 28.975 109.577 30.675 108.477 32.475C107.427 34.225 106.502 35.875 105.702 37.425C104.902 38.925 104.277 40.15 103.827 41.1C102.877 43.35 102.027 45.75 101.277 48.3C100.527 50.8 100.152 53.025 100.152 54.975C100.152 56.475 100.427 57.7 100.977 58.65C101.527 59.55 102.477 60 103.827 60C105.227 60 106.652 59.5 108.102 58.5C109.552 57.45 110.927 56.15 112.227 54.6C113.577 53 114.802 51.35 115.902 49.65C117.052 47.9 118.002 46.3 118.752 44.85C119.102 44.9 119.602 44.95 120.252 45C120.952 45.05 121.302 45.525 121.302 46.425C121.302 46.925 121.152 47.575 120.852 48.375C120.552 49.125 120.027 50.15 119.277 51.45C117.677 54.1 115.527 56.45 112.827 58.5C110.127 60.55 107.402 61.925 104.652 62.625C103.552 62.925 102.502 63.125 101.502 63.225C100.502 63.375 99.5768 63.45 98.7268 63.45ZM127.723 63.45C125.273 63.45 123.548 62.9 122.548 61.8C121.598 60.65 121.123 59.225 121.123 57.525C121.123 55.725 121.448 53.8 122.098 51.75C122.798 49.65 123.573 47.725 124.423 45.975C125.323 44.175 126.023 42.8 126.523 41.85C128.573 38.05 130.923 35.275 133.573 33.525C136.273 31.775 139.248 30.9 142.498 30.9C143.648 30.9 144.998 30.95 146.548 31.05C148.098 31.15 149.673 31.2 151.273 31.2C152.073 31.2 152.848 31.175 153.598 31.125C154.348 31.075 155.073 31.05 155.773 31.05H156.073C156.923 31.05 157.348 31.2 157.348 31.5C157.348 31.7 157.048 31.925 156.448 32.175C155.798 32.425 155.023 33.275 154.123 34.725C153.223 36.125 152.298 37.825 151.348 39.825C150.398 41.825 149.498 43.85 148.648 45.9C148.198 47.05 147.598 48.6 146.848 50.55C146.098 52.45 145.548 54.4 145.198 56.4C145.148 56.75 145.098 57.075 145.048 57.375C145.048 57.625 145.048 57.875 145.048 58.125C145.048 59.375 145.373 60 146.023 60C146.823 60 147.648 59.575 148.498 58.725C149.348 57.875 150.173 56.85 150.973 55.65C151.673 54.6 152.373 53.425 153.073 52.125C153.773 50.825 154.398 49.625 154.948 48.525C155.498 47.375 155.898 46.575 156.148 46.125C156.298 45.825 156.498 45.675 156.748 45.675C157.048 45.675 157.323 45.9 157.573 46.35C157.823 46.75 157.848 47.15 157.648 47.55C156.698 49.4 155.673 51.375 154.573 53.475C153.473 55.575 152.273 57.475 150.973 59.175C148.773 62.025 146.223 63.45 143.323 63.45C141.123 63.45 139.498 62.775 138.448 61.425C137.448 60.075 136.948 58.45 136.948 56.55C136.948 55.7 137.023 54.875 137.173 54.075C136.623 54.975 135.948 56.15 135.148 57.6C134.348 59 133.423 60.275 132.373 61.425C131.373 62.575 130.248 63.225 128.998 63.375C128.798 63.375 128.598 63.375 128.398 63.375C128.198 63.425 127.973 63.45 127.723 63.45ZM130.498 59.625C130.998 59.625 131.648 59.175 132.448 58.275C133.298 57.375 134.148 56.25 134.998 54.9C135.898 53.5 136.673 52.1 137.323 50.7C137.473 50.3 137.823 49.45 138.373 48.15C138.973 46.8 139.623 45.25 140.323 43.5C141.073 41.7 141.823 39.9 142.573 38.1C143.323 36.3 143.973 34.725 144.523 33.375C144.573 33.225 144.598 33.05 144.598 32.85C144.598 32.55 144.448 32.4 144.148 32.4C143.848 32.4 143.498 32.525 143.098 32.775C142.698 32.975 142.323 33.2 141.973 33.45C141.323 33.95 140.473 35 139.423 36.6C138.423 38.15 137.348 39.975 136.198 42.075C135.098 44.175 134.048 46.325 133.048 48.525C132.048 50.675 131.223 52.65 130.573 54.45C129.973 56.2 129.673 57.525 129.673 58.425C129.673 59.225 129.948 59.625 130.498 59.625ZM153.437 75.825C151.837 75.825 150.512 75.5 149.462 74.85C148.412 74.2 147.812 73.3 147.662 72.15C147.612 71.9 147.587 71.65 147.587 71.4C147.587 71.2 147.587 70.975 147.587 70.725C147.587 68.875 147.937 66.7 148.637 64.2C149.337 61.7 150.237 59.1 151.337 56.4C152.437 53.7 153.562 51.175 154.712 48.825C155.112 47.975 155.662 46.75 156.362 45.15C157.112 43.55 157.837 41.875 158.537 40.125C159.287 38.325 159.912 36.75 160.412 35.4C160.912 34 161.112 33.075 161.012 32.625V32.25C161.012 31.65 161.487 31.35 162.437 31.35C163.537 31.35 164.612 31.575 165.662 32.025C166.712 32.525 167.512 33.225 168.062 34.125C168.612 35.025 168.887 35.975 168.887 36.975C168.887 37.775 168.687 38.625 168.287 39.525L166.187 43.95C166.837 42.9 167.587 41.725 168.437 40.425C169.287 39.125 170.137 37.85 170.987 36.6C171.887 35.3 172.662 34.2 173.312 33.3C174.012 32.35 174.512 31.75 174.812 31.5C175.262 31.1 175.862 30.9 176.612 30.9C177.162 30.9 177.737 31 178.337 31.2C178.937 31.35 179.587 31.55 180.287 31.8C180.987 32.05 181.462 32.525 181.712 33.225C182.012 33.875 182.162 34.675 182.162 35.625C182.162 36.825 181.912 38.325 181.412 40.125C180.962 41.875 180.337 43.775 179.537 45.825C178.737 47.825 177.837 49.825 176.837 51.825C175.837 53.825 174.812 55.625 173.762 57.225C174.862 57.275 175.912 57.125 176.912 56.775C177.962 56.425 178.887 55.825 179.687 54.975C180.687 53.875 181.587 52.525 182.387 50.925C183.237 49.275 183.987 47.8 184.637 46.5C184.787 46.2 185.012 46.05 185.312 46.05C185.662 46.05 185.962 46.225 186.212 46.575C186.462 46.925 186.487 47.3 186.287 47.7C185.787 48.7 185.187 49.875 184.487 51.225C183.837 52.525 183.112 53.775 182.312 54.975C181.512 56.175 180.637 57.125 179.687 57.825C178.887 58.475 178.087 58.9 177.287 59.1C176.487 59.3 175.662 59.4 174.812 59.4C174.412 59.4 174.012 59.4 173.612 59.4C173.212 59.35 172.787 59.3 172.337 59.25C171.537 60.3 170.787 61.1 170.087 61.65C169.337 62.2 168.537 62.65 167.687 63C166.837 63.35 165.912 63.525 164.912 63.525C162.012 63.525 160.037 61.95 158.987 58.8C158.087 61.05 157.312 63.275 156.662 65.475C156.012 67.675 155.562 69.725 155.312 71.625C155.262 71.875 155.212 72.125 155.162 72.375C155.162 72.675 155.162 72.95 155.162 73.2C155.162 74.15 155.362 74.75 155.762 75C155.812 75.05 155.837 75.125 155.837 75.225C155.837 75.575 155.512 75.75 154.862 75.75C154.612 75.8 154.362 75.825 154.112 75.825C153.912 75.825 153.687 75.825 153.437 75.825ZM166.337 55.5C167.037 54.25 167.687 52.875 168.287 51.375C168.887 49.825 169.437 48.325 169.937 46.875C170.437 45.425 170.837 44.175 171.137 43.125C171.487 42.025 171.712 41.3 171.812 40.95C172.012 40.25 172.162 39.625 172.262 39.075C172.412 38.475 172.512 37.975 172.562 37.575C171.712 38.675 170.662 40.15 169.412 42C168.162 43.85 166.862 45.8 165.512 47.85C164.212 49.9 163.012 51.825 161.912 53.625L165.962 55.35C166.062 55.45 166.187 55.5 166.337 55.5ZM162.437 59.4C162.887 59.4 163.337 59.225 163.787 58.875C164.237 58.475 164.712 57.95 165.212 57.3C164.462 56.95 163.737 56.6 163.037 56.25C162.387 55.85 161.712 55.45 161.012 55.05L160.337 56.175C160.437 56.575 160.562 56.975 160.712 57.375C160.862 57.775 161.037 58.15 161.237 58.5C161.637 59.1 162.037 59.4 162.437 59.4ZM191.223 63.525C188.173 63.525 185.648 62.625 183.648 60.825C181.648 59.025 180.648 56.525 180.648 53.325C180.648 52.225 180.773 51.075 181.023 49.875C181.273 48.675 181.673 47.65 182.223 46.8C182.773 45.95 183.498 45.525 184.398 45.525C184.948 45.525 185.348 45.7 185.598 46.05C186.198 44.9 186.848 43.75 187.548 42.6C188.248 41.45 188.948 40.275 189.648 39.075C190.448 37.775 191.373 36.35 192.423 34.8C193.523 33.2 194.773 31.8 196.173 30.6C197.573 29.35 199.098 28.65 200.748 28.5C200.948 28.45 201.148 28.425 201.348 28.425C201.598 28.425 201.823 28.425 202.023 28.425C202.573 28.425 203.148 28.45 203.748 28.5C204.348 28.55 204.798 28.6 205.098 28.65C205.198 28.7 205.273 28.85 205.323 29.1C205.373 29.35 205.248 29.475 204.948 29.475C204.748 29.475 204.348 29.625 203.748 29.925C203.148 30.175 202.798 30.8 202.698 31.8C202.598 35.3 202.373 38.8 202.023 42.3C201.723 45.8 201.248 48.725 200.598 51.075C200.298 52.275 199.823 53.575 199.173 54.975C198.523 56.375 197.748 57.625 196.848 58.725C195.948 59.825 194.998 60.575 193.998 60.975C194.998 60.975 196.048 60.675 197.148 60.075C198.298 59.425 199.348 58.65 200.298 57.75C201.298 56.85 202.048 56.05 202.548 55.35C203.648 53.8 204.648 52.175 205.548 50.475C206.498 48.725 207.198 47.375 207.648 46.425C207.798 46.175 207.973 46.05 208.173 46.05C208.423 46.05 208.648 46.2 208.848 46.5C209.048 46.8 209.148 47.125 209.148 47.475C209.148 47.575 209.123 47.675 209.073 47.775C209.073 47.875 209.048 47.975 208.998 48.075C208.098 49.875 207.098 51.7 205.998 53.55C204.948 55.35 203.723 57.025 202.323 58.575C200.923 60.075 199.323 61.275 197.523 62.175C195.723 63.075 193.623 63.525 191.223 63.525ZM186.348 58.8C186.898 58.8 187.448 58.625 187.998 58.275C188.548 57.925 188.998 57.375 189.348 56.625C190.098 54.975 190.773 53.075 191.373 50.925C191.973 48.775 192.498 46.65 192.948 44.55C193.398 42.4 193.773 40.5 194.073 38.85C194.423 37.15 194.673 35.925 194.823 35.175C194.073 36.075 193.148 37.35 192.048 39C190.998 40.65 189.973 42.3 188.973 43.95C188.023 45.6 187.298 46.925 186.798 47.925C186.848 49.075 186.398 50.1 185.448 51C184.498 51.9 183.673 52.825 182.973 53.775V54.6C182.973 54.8 182.973 55.05 182.973 55.35C183.023 55.65 183.073 55.925 183.123 56.175C183.373 56.975 183.798 57.625 184.398 58.125C185.048 58.575 185.698 58.8 186.348 58.8ZM225.173 63.45C222.973 63.45 221.398 62.675 220.448 61.125C219.498 59.575 219.048 57.775 219.098 55.725C217.548 58.625 215.948 60.6 214.298 61.65C212.698 62.65 211.073 63.15 209.423 63.15C207.423 63.15 206.048 62.625 205.298 61.575C204.548 60.525 204.173 59.275 204.173 57.825C204.173 56.675 204.298 55.525 204.548 54.375C204.848 53.175 205.173 52.075 205.523 51.075C206.173 49.175 206.873 47.25 207.623 45.3C208.423 43.3 209.198 41.5 209.948 39.9C210.698 38.3 211.273 37.125 211.673 36.375C212.673 34.575 213.798 33.35 215.048 32.7C216.298 32 217.573 31.65 218.873 31.65C219.273 31.65 219.673 31.675 220.073 31.725C220.523 31.775 220.923 31.85 221.273 31.95C221.923 32.1 222.423 32.25 222.773 32.4C223.123 32.5 223.298 32.7 223.298 33C223.298 33.15 223.223 33.375 223.073 33.675C222.373 34.875 221.498 36.425 220.448 38.325C219.448 40.175 218.423 42.175 217.373 44.325C216.323 46.475 215.373 48.6 214.523 50.7C213.723 52.75 213.148 54.6 212.798 56.25C212.748 56.5 212.698 56.725 212.648 56.925C212.648 57.125 212.648 57.325 212.648 57.525C212.648 58.375 212.973 58.8 213.623 58.8C214.273 58.8 214.973 58.3 215.723 57.3C216.473 56.3 217.198 55.1 217.898 53.7C218.648 52.3 219.273 51.025 219.773 49.875C220.323 48.675 220.673 47.925 220.823 47.625C221.673 45.875 222.423 44.2 223.073 42.6C223.773 40.95 224.523 39.35 225.323 37.8C226.423 35.6 227.548 33.975 228.698 32.925C229.848 31.875 231.048 31.25 232.298 31.05C232.698 30.95 233.073 30.9 233.423 30.9C233.823 30.9 234.198 30.9 234.548 30.9C235.398 30.9 236.148 30.925 236.798 30.975C237.498 31.025 237.998 31.075 238.298 31.125C239.148 31.175 239.573 31.425 239.573 31.875C239.573 32.425 239.198 32.75 238.448 32.85C237.948 32.9 237.273 33.55 236.423 34.8C235.623 36 234.773 37.425 233.873 39.075C232.473 41.675 231.123 44.475 229.823 47.475C228.523 50.425 227.598 53.4 227.048 56.4C226.998 56.75 226.948 57.075 226.898 57.375C226.898 57.625 226.898 57.875 226.898 58.125C226.898 59.375 227.223 60 227.873 60C228.673 60 229.498 59.575 230.348 58.725C231.198 57.875 232.023 56.85 232.823 55.65C233.523 54.6 234.223 53.425 234.923 52.125C235.623 50.825 236.248 49.625 236.798 48.525C237.348 47.375 237.748 46.575 237.998 46.125C238.148 45.825 238.348 45.675 238.598 45.675C238.898 45.675 239.173 45.9 239.423 46.35C239.673 46.75 239.698 47.15 239.498 47.55C238.548 49.4 237.523 51.375 236.423 53.475C235.323 55.575 234.123 57.475 232.823 59.175C230.623 62.025 228.073 63.45 225.173 63.45ZM244.022 63.525C241.972 63.525 240.347 63.225 239.147 62.625C237.997 62.025 237.147 61.15 236.597 60C236.097 58.85 235.847 57.5 235.847 55.95C235.847 53.3 236.447 50.3 237.647 46.95C238.897 43.6 240.347 40.4 241.997 37.35C242.647 36.15 243.422 34.75 244.322 33.15C245.272 31.5 246.322 29.875 247.472 28.275C248.672 26.675 249.922 25.3 251.222 24.15C252.572 22.95 253.947 22.225 255.347 21.975C256.197 21.825 257.022 21.75 257.822 21.75C259.122 21.75 260.097 21.875 260.747 22.125C261.897 22.575 262.472 23.025 262.472 23.475C262.472 23.775 262.222 23.925 261.722 23.925C261.522 23.925 261.247 24.05 260.897 24.3C260.547 24.5 260.222 24.75 259.922 25.05C257.722 27.25 255.297 30.525 252.647 34.875C250.497 38.375 248.697 41.825 247.247 45.225C245.797 48.575 244.722 52.025 244.022 55.575C243.872 56.475 243.797 57.225 243.797 57.825C243.797 58.875 243.972 59.625 244.322 60.075C244.672 60.525 245.097 60.75 245.597 60.75C246.597 60.75 247.747 60.175 249.047 59.025C250.397 57.875 251.472 56.625 252.272 55.275C253.322 53.825 254.247 52.325 255.047 50.775C255.897 49.175 256.597 47.825 257.147 46.725C257.347 46.375 257.622 46.2 257.972 46.2C258.272 46.2 258.547 46.35 258.797 46.65C259.047 46.95 259.072 47.3 258.872 47.7C258.122 49.2 257.172 50.975 256.022 53.025C254.922 55.075 253.697 56.9 252.347 58.5C251.097 60 249.747 61.225 248.297 62.175C246.897 63.075 245.472 63.525 244.022 63.525ZM265.754 64.125C262.104 64.125 259.454 63.3 257.804 61.65C256.204 60 255.404 57.825 255.404 55.125C255.404 53.075 255.829 50.825 256.679 48.375C257.329 46.375 258.204 44.35 259.304 42.3C260.404 40.2 261.679 38.275 263.129 36.525C264.579 34.725 266.179 33.3 267.929 32.25C269.679 31.15 271.529 30.6 273.479 30.6C275.979 30.6 278.004 31 279.554 31.8C281.154 32.55 281.954 33.8 281.954 35.55C281.954 36.85 281.429 38.475 280.379 40.425C278.979 43.125 276.929 45.35 274.229 47.1C271.529 48.85 268.504 49.85 265.154 50.1C264.404 52.15 263.954 53.825 263.804 55.125C263.754 55.375 263.729 55.625 263.729 55.875C263.729 56.075 263.729 56.3 263.729 56.55C263.729 58.2 264.104 59.4 264.854 60.15C265.604 60.85 266.529 61.2 267.629 61.2C269.679 61.2 271.479 60.675 273.029 59.625C274.579 58.575 275.929 57.25 277.079 55.65C278.279 54.05 279.304 52.45 280.154 50.85C280.654 49.95 281.079 49.125 281.429 48.375C281.779 47.575 282.054 47 282.254 46.65C282.504 46.25 282.779 46.05 283.079 46.05C283.379 46.05 283.654 46.225 283.904 46.575C284.154 46.875 284.179 47.225 283.979 47.625C283.329 48.925 282.429 50.65 281.279 52.8C280.129 54.95 278.829 56.85 277.379 58.5C275.779 60.4 274.054 61.825 272.204 62.775C270.404 63.675 268.254 64.125 265.754 64.125ZM266.129 47.925C268.379 47.075 270.354 45.55 272.054 43.35C273.804 41.15 274.979 38.725 275.579 36.075C275.629 35.825 275.654 35.6 275.654 35.4C275.704 35.2 275.729 35 275.729 34.8C275.729 33.8 275.429 33.3 274.829 33.3C274.329 33.3 273.804 33.65 273.254 34.35C272.454 35.3 271.604 36.6 270.704 38.25C269.804 39.85 269.004 41.425 268.304 42.975C267.604 44.525 267.079 45.7 266.729 46.5L266.129 47.925Z" fill="#B6CBE8"/>
</g>
<defs>
<clipPath id="clip0_59_773">
<rect width="297" height="87" fill="white"/>
</clipPath>
</defs>
</svg>
